# xmcd
#
# Track frame offsets:
#	150
#	20512
#	38685
#	61257
#	79942
#	100280
#	122635
#	139990
#	159090
#	177862
#	197790
#	219690
#
# Disc length: 3154 seconds
#
# Revision: 3
# Processed by: cddbd v1.5.2PL0 Copyright (c) Steve Scherf et al.
# Submitted via: audiograbber 1.83.01
#
DISCID=a10c500c
DTITLE=Gadd, Eric - On Display
DYEAR=1993
DGENRE=Soul
TTITLE0=Ask me
TTITLE1=Wish I
TTITLE2=God gave me you
TTITLE3=If you don't like it
TTITLE4=Heaven is asleep
TTITLE5=From today till tomorrow
TTITLE6=A helping hand
TTITLE7=People tell me
TTITLE8=Trouble
TTITLE9=Stretch your ego
TTITLE10=On display
TTITLE11=Wish I [version]
EXTD=
EXTT0=
EXTT1=
EXTT2=
EXTT3=
EXTT4=
EXTT5=
EXTT6=
EXTT7=
EXTT8=
EXTT9=
EXTT10=
EXTT11=
PLAYORDER=
